/vscmnt/brussel_pixiu_data/_data_brussel/112/vsc11236/PredSimResults/SUBJ10_Dhondt2024_3seg/weighted-LRposFixed/worker_01.mot
version=1
nRows=4
nColumns=124
inDegrees=yes
endheader
                time	         pelvis_tilt	         pelvis_list	     pelvis_rotation	           pelvis_tx	           pelvis_ty	           pelvis_tz	       hip_flexion_r	     hip_adduction_r	      hip_rotation_r	        knee_angle_r	       ankle_angle_r	    subtalar_angle_r	         mtp_angle_r	       hip_flexion_l	     hip_adduction_l	      hip_rotation_l	        knee_angle_l	       ankle_angle_l	    subtalar_angle_l	         mtp_angle_l	    lumbar_extension	      lumbar_bending	     lumbar_rotation	          arm_flex_r	           arm_add_r	           arm_rot_r	        elbow_flex_r	          arm_flex_l	           arm_add_l	           arm_rot_l	        elbow_flex_l	glut_med1_r/activation	glut_med2_r/activation	glut_med3_r/activation	glut_min1_r/activation	glut_min2_r/activation	glut_min3_r/activation	semimem_r/activation	semiten_r/activation	bifemlh_r/activation	bifemsh_r/activation	    sar_r/activation	add_long_r/activation	add_brev_r/activation	add_mag1_r/activation	add_mag2_r/activation	add_mag3_r/activation	    tfl_r/activation	   pect_r/activation	   grac_r/activation	glut_max1_r/activation	glut_max2_r/activation	glut_max3_r/activation	iliacus_r/activation	  psoas_r/activation	quad_fem_r/activation	    gem_r/activation	   peri_r/activation	rect_fem_r/activation	vas_med_r/activation	vas_int_r/activation	vas_lat_r/activation	med_gas_r/activation	lat_gas_r/activation	 soleus_r/activation	tib_post_r/activation	flex_dig_r/activation	flex_hal_r/activation	tib_ant_r/activation	per_brev_r/activation	per_long_r/activation	per_tert_r/activation	ext_dig_r/activation	ext_hal_r/activation	glut_med1_l/activation	glut_med2_l/activation	glut_med3_l/activation	glut_min1_l/activation	glut_min2_l/activation	glut_min3_l/activation	semimem_l/activation	semiten_l/activation	bifemlh_l/activation	bifemsh_l/activation	    sar_l/activation	add_long_l/activation	add_brev_l/activation	add_mag1_l/activation	add_mag2_l/activation	add_mag3_l/activation	    tfl_l/activation	   pect_l/activation	   grac_l/activation	glut_max1_l/activation	glut_max2_l/activation	glut_max3_l/activation	iliacus_l/activation	  psoas_l/activation	quad_fem_l/activation	    gem_l/activation	   peri_l/activation	rect_fem_l/activation	vas_med_l/activation	vas_int_l/activation	vas_lat_l/activation	med_gas_l/activation	lat_gas_l/activation	 soleus_l/activation	tib_post_l/activation	flex_dig_l/activation	flex_hal_l/activation	tib_ant_l/activation	per_brev_l/activation	per_long_l/activation	per_tert_l/activation	ext_dig_l/activation	ext_hal_l/activation	 ercspn_r/activation	 ercspn_l/activation	 intobl_r/activation	 intobl_l/activation	 extobl_r/activation	 extobl_l/activation	
          1.52409933	         -2.91962122	          0.33579836	         -2.01223973	          1.76795522	          0.82350935	          0.00115937	        -16.32036942	          1.91255161	          9.42385386	         -6.54433978	          5.14498054	         12.50429101	         13.34679782	         28.65218388	          3.10472616	          4.23885439	        -13.19546991	          9.32740320	         -0.10770955	          0.23471982	         -5.47680332	          0.21953475	          1.05930230	         22.47828012	        -13.54759957	         15.59395939	         42.13842732	        -26.14608210	        -14.54026424	          1.23910474	         34.90593735	          0.20689977	          0.09477572	          0.05539616	          0.26925496	          0.21855732	          0.13322200	          0.01169255	          0.01001720	          0.01000340	          0.02798538	          0.08078967	          0.01000014	          0.01000018	          0.01000044	          0.01000159	          0.01000096	          0.33203300	          0.01000068	          0.01000160	          0.01599085	          0.01435560	          0.01000605	          0.17156323	          0.32589689	          0.01598901	          0.01598934	          0.04727160	          0.20903916	          0.01000020	          0.01000025	          0.01000020	          0.25947188	          0.29381107	          0.24169837	          0.23064776	          0.29998500	          0.36597581	          0.01423213	          0.03547380	          0.16870118	          0.01169463	          0.01351821	          0.01382577	          0.01367971	          0.01000298	          0.01000245	          0.01178665	          0.01000076	          0.01000098	          0.11460633	          0.02195265	          0.01169394	          0.01000065	          0.01239743	          0.06179614	          0.13292165	          0.10599427	          0.11609772	          0.08011253	          0.01000059	          0.01629490	          0.03390861	          0.01169445	          0.01579425	          0.05064768	          0.01530961	          0.01420181	          0.01529874	          0.01000250	          0.01000042	          0.01000010	          0.07258429	          0.07330733	          0.06107954	          0.01169334	          0.01121181	          0.01169343	          0.01000004	          0.01000023	          0.01000051	          0.29173113	          0.18220114	          0.10793668	          0.12643585	          0.28591714	          0.03891456	          0.01000000	          0.01367366	          0.01000012	          0.02860992	          0.01000027	          0.08345729	
          1.53425999	         -2.91035206	          0.57161753	         -2.15978224	          1.78184648	          0.82308340	          0.00096176	        -16.24338615	          1.67229335	          9.30505426	         -8.32247494	          4.29818784	         12.84728148	         14.32498520	         27.98272644	          3.54020301	          4.29875792	        -12.88581270	          8.66539842	         -0.21643765	          0.23848977	         -5.34134265	         -0.20593831	          1.10501761	         22.40575084	        -13.55240787	         15.67964025	         43.17545143	        -27.03670522	        -14.50784295	          1.12965567	         34.92649250	          0.24881457	          0.08105032	          0.04737370	          0.23026243	          0.18690593	          0.11392882	          0.01000125	          0.01000014	          0.01000012	          0.02393256	          0.06908980	          0.03695754	          0.01000059	          0.01000071	          0.01000151	          0.01000041	          0.28394808	          0.06410627	          0.01168376	          0.01367525	          0.01227687	          0.01000098	          0.14671750	          0.27870056	          0.01367353	          0.01367387	          0.04042574	          0.18142514	          0.01000030	          0.01000040	          0.01000034	          0.22189519	          0.25126140	          0.22191575	          0.21815046	          0.25654220	          0.31317434	          0.01217104	          0.03282865	          0.16856745	          0.01000105	          0.01156051	          0.01182354	          0.01169866	          0.01169332	          0.01000010	          0.01169381	          0.01169367	          0.01032067	          0.09800908	          0.01877352	          0.01000045	          0.01000009	          0.01060219	          0.05284715	          0.12985147	          0.14274569	          0.12808450	          0.07053017	          0.01000075	          0.01869879	          0.02899822	          0.01000101	          0.01350699	          0.04331327	          0.01309336	          0.01214526	          0.13819886	          0.01000036	          0.01000050	          0.01367353	          0.10221106	          0.06269450	          0.08416150	          0.01000000	          0.01000001	          0.01000000	          0.01061934	          0.01006245	          0.01000046	          0.29520422	          0.16798976	          0.11359955	          0.14846114	          0.30993844	          0.05096645	          0.01409745	          0.01169345	          0.02707463	          0.02446664	          0.01000016	          0.07137101	
          1.54442065	         -2.89784437	          0.81712112	         -2.29563926	          1.79592294	          0.82264253	          0.00077230	        -16.06706034	          1.43610023	          9.17800743	        -10.27179930	          3.29411517	         13.16870280	         15.29107174	         27.27354268	          3.94321887	          4.38456120	        -13.10667821	          7.76795030	         -0.30539802	          0.24065704	         -5.19672874	         -0.64555859	          1.14352421	         22.23246083	        -13.55326883	         15.71868371	         44.10811305	        -27.70776795	        -14.46815323	          1.16685638	         34.50295206	          0.21278144	          0.06931263	          0.04051305	          0.19691617	          0.15983828	          0.09742968	          0.01327309	          0.01000391	          0.01000304	          0.02046667	          0.05908427	          0.06881230	          0.01770489	          0.01169386	          0.01169346	          0.01169477	          0.24282681	          0.05638613	          0.01000271	          0.01169499	          0.01049926	          0.01000240	          0.12546991	          0.23833920	          0.01169337	          0.01169371	          0.03457130	          0.15515128	          0.02098239	          0.01235869	          0.01169528	          0.18976034	          0.21487375	          0.18977794	          0.18655809	          0.21938993	          0.26782061	          0.01040843	          0.03413018	          0.17014023	          0.01000006	          0.01000001	          0.01011128	          0.01000447	          0.01000010	          0.02979077	          0.01000037	          0.01000029	          0.01000016	          0.08381544	          0.06681968	          0.04483639	          0.01806096	          0.01367289	          0.04519394	          0.11104705	          0.12207425	          0.10953566	          0.06031609	          0.01000039	          0.01599210	          0.09580103	          0.01087103	          0.02073745	          0.03704084	          0.01367318	          0.01367352	          0.11925634	          0.01832368	          0.01000104	          0.01169337	          0.08740890	          0.05361512	          0.07197327	          0.01621936	          0.01772529	          0.01575500	          0.01169441	          0.01169819	          0.01380206	          0.25245278	          0.17345523	          0.10183605	          0.12696105	          0.26505338	          0.04358552	          0.02389474	          0.01000001	          0.02315372	          0.02092339	          0.01443925	          0.06103507	
          1.55458131	         -2.88309639	          1.08042935	         -2.41738613	          1.81008514	          0.82219974	          0.00059065	        -15.76986791	          1.20062470	          9.03341770	        -12.41361800	          2.13347981	         13.44742535	         16.18843972	         26.53849056	          4.31031017	          4.49872166	        -13.46886131	          6.75524511	         -0.37744318	          0.24175134	         -5.05020342	         -1.10620733	          1.17488502	         21.97862445	        -13.55314368	         15.74238277	         44.91647878	        -28.14277243	        -14.42839691	          1.35917483	         33.64514824	          0.21042965	          0.05927479	          0.03464596	          0.25295886	          0.13669058	          0.08331994	          0.01758307	          0.01000011	          0.01000008	          0.01750270	          0.05052774	          0.05884705	          0.01514097	          0.01000063	          0.01000102	          0.01000150	          0.20766074	          0.04822077	          0.01000027	          0.01000160	          0.01000027	          0.01000020	          0.10729939	          0.20382297	          0.01000004	          0.01000036	          0.02956470	          0.13598295	          0.01794388	          0.01056910	          0.01000170	          0.16227927	          0.18375576	          0.16229431	          0.15954080	          0.18761797	          0.22903491	          0.01000002	          0.05964812	          0.16269608	          0.01000020	          0.01000009	          0.01000021	          0.18543025	          0.20512304	          0.22468298	          0.13389276	          0.01004255	          0.11016902	          0.07167730	          0.05714345	          0.03834408	          0.01544554	          0.01169322	          0.03864902	          0.09496548	          0.10439603	          0.09367365	          0.07792039	          0.01000061	          0.01367673	          0.08192745	          0.15155709	          0.01862621	          0.04348652	          0.01169346	          0.01169347	          0.10198575	          0.01567024	          0.02195731	          0.01000009	          0.12542596	          0.04585069	          0.10136910	          0.01387048	          0.01515832	          0.01347336	          0.01000084	          0.01000411	          0.01180329	          0.37788690	          0.21614042	          0.11209149	          0.45782169	          0.36440432	          0.23116834	          0.04543631	          0.02763258	          0.01980060	          0.01789328	          0.01234817	          0.05219598	
